<?xml version="1.0" encoding="utf-8"?>
<!-- Generator: Adobe Illustrator 16.0.0, SVG Export Plug-In . SVG Version: 6.00 Build 0)  -->
<!DOCTYPE svg PUBLIC "-//W3C//DTD SVG 1.1//EN" "http://www.w3.org/Graphics/SVG/1.1/DTD/svg11.dtd">
<svg version="1.1" id="Capa_1" xmlns="http://www.w3.org/2000/svg" xmlns:xlink="http://www.w3.org/1999/xlink" x="0px" y="0px"
	 width="3138.769px" height="3137.349px" viewBox="0 0 3138.769 3137.349" enable-background="new 0 0 3138.769 3137.349"
	 xml:space="preserve">
<polygon fill="#DDDDDD" points="81.968,67.852 78.418,65 67.932,75 78.519,85 82.068,82.149 74.45,75 "/>
<g display="none">
	<rect x="-156.186" y="111.347" display="inline" fill="#DDDDDD" width="22" height="22"/>
	<rect x="-266.185" y="1.349" display="inline" fill="#DDDDDD" width="22" height="22"/>
	<rect x="-244.268" y="23.349" display="inline" fill="#DDDDDD" width="22" height="22"/>
	<rect x="-222.286" y="45.349" display="inline" fill="#DDDDDD" width="22" height="22"/>
	<rect x="-200.185" y="67.348" display="inline" fill="#DDDDDD" width="22" height="22"/>
	<rect x="-178.186" y="89.348" display="inline" fill="#DDDDDD" width="22" height="21.999"/>
	<rect x="-134.241" y="133.346" display="inline" fill="#DDDDDD" width="22" height="22"/>
	<rect x="-112.242" y="155.346" display="inline" fill="#DDDDDD" width="22" height="22"/>
	<rect x="-90.242" y="177.346" display="inline" fill="#DDDDDD" width="22" height="22"/>
</g>
<g display="none">
	<rect y="1" display="inline" fill="#DDDDDD" width="50" height="50"/>
	<rect x="50" y="51" display="inline" fill="#DDDDDD" width="50" height="50"/>
	<rect x="100" y="101" display="inline" fill="#DDDDDD" width="50" height="50"/>
	<rect x="150.173" y="151" display="inline" fill="#DDDDDD" width="50" height="50"/>
	<rect x="200.087" y="201" display="inline" fill="#DDDDDD" width="50" height="50"/>
	<rect x="250.087" y="250.833" display="inline" fill="#DDDDDD" width="50" height="50.001"/>
	<rect x="300.087" y="300" display="inline" fill="#DDDDDD" width="50" height="50.002"/>
	<rect x="350.261" y="350.087" display="inline" fill="#DDDDDD" width="50" height="50"/>
	<rect x="400.261" y="400.087" display="inline" fill="#DDDDDD" width="50" height="50"/>
</g>
<polygon fill="#DDDDDD" points="118.032,132.148 121.582,135 132.068,124.999 121.48,115 117.932,117.851 125.551,124.999 "/>
<polygon fill="#DDDDDD" points="177.572,172.602 177.572,166.521 172.773,166.521 172.773,172.603 166.693,172.603 166.693,177.399 
	172.773,177.399 172.773,183.48 177.572,183.48 177.572,177.399 183.653,177.399 183.653,172.602 "/>
<g>
	<path fill="#DDDDDD" d="M234.22,231.79l-5.18-5.178c0.709-1.132,1.119-2.473,1.119-3.904c0-4.072-3.301-7.373-7.371-7.373
		c-4.071,0-7.372,3.301-7.372,7.373c0,4.07,3.301,7.37,7.372,7.37c1.439,0,2.786-0.414,3.922-1.13l5.175,5.175
		c0.357,0.355,0.821,0.543,1.284,0.543c0.004,0,0.006,0,0.008,0c0.402,0,0.814-0.15,1.123-0.457
		c0.312-0.313,0.461-0.726,0.459-1.134C234.759,232.611,234.573,232.145,234.22,231.79z M226.898,222.708
		c-0.003,2.266-1.845,4.107-4.11,4.111c-2.267-0.004-4.107-1.846-4.11-4.111c0.003-2.266,1.844-4.107,4.11-4.111
		C225.054,218.601,226.896,220.442,226.898,222.708z"/>
</g>
<g>
	<path fill="#FFE6BC" d="M329.95,330.161c0.015-0.143,0.022-0.291,0.022-0.449v-3.742c0-2.129-1.363-3.939-3.262-4.609
		c0.04-0.146,0.065-0.301,0.065-0.461c0-0.936-0.759-1.693-1.694-1.693c-0.934,0-1.692,0.758-1.692,1.693
		c0,0.162,0.024,0.316,0.065,0.465c-1.896,0.67-3.254,2.479-3.254,4.605v3.742c0,0.158,0.008,0.309,0.021,0.451l-1.887,1.826
		c0,0.41,0.33,0.74,0.74,0.74h4.33c-0.01,0.076-0.017,0.15-0.017,0.23c0,0.934,0.759,1.693,1.692,1.693
		c0.936,0,1.694-0.76,1.694-1.693c0-0.08-0.008-0.154-0.019-0.23h4.34c0.409,0,0.74-0.33,0.74-0.74L329.95,330.161z
		 M324.141,320.899c0-0.52,0.422-0.941,0.941-0.941c0.521,0,0.942,0.422,0.942,0.941c0,0.094-0.017,0.182-0.042,0.268
		c-0.291-0.055-0.59-0.084-0.895-0.084c-0.311,0-0.612,0.031-0.904,0.086C324.157,321.083,324.141,320.993,324.141,320.899z"/>
</g>
<circle fill="#E30000" cx="331.838" cy="321.125" r="5.776"/>
<g>
	<path fill="#FFE6BC" d="M380.123,378.318c0.016-0.143,0.023-0.291,0.023-0.449v-3.742c0-2.129-1.363-3.939-3.262-4.609
		c0.039-0.146,0.064-0.301,0.064-0.461c0-0.936-0.759-1.693-1.693-1.693c-0.936,0-1.692,0.758-1.692,1.693
		c0,0.162,0.024,0.316,0.065,0.465c-1.896,0.67-3.256,2.479-3.256,4.605v3.742c0,0.158,0.01,0.309,0.023,0.451l-1.887,1.826
		c0,0.41,0.33,0.74,0.738,0.74h4.333c-0.011,0.076-0.018,0.15-0.018,0.23c0,0.934,0.757,1.693,1.692,1.693
		c0.935,0,1.693-0.76,1.693-1.693c0-0.08-0.008-0.154-0.018-0.23h4.34c0.408,0,0.74-0.33,0.74-0.74L380.123,378.318z
		 M374.313,369.056c0-0.52,0.422-0.941,0.942-0.941c0.52,0,0.941,0.422,0.941,0.941c0,0.094-0.018,0.182-0.043,0.268
		c-0.29-0.055-0.589-0.084-0.895-0.084c-0.308,0-0.61,0.031-0.902,0.086C374.332,369.24,374.313,369.15,374.313,369.056z"/>
</g>
<g>
	<g>
		<path fill="#FFE6BC" d="M277.062,280.993c0.015-0.143,0.022-0.291,0.022-0.449v-3.742c0-2.129-1.363-3.939-3.262-4.609
			c0.04-0.146,0.065-0.301,0.065-0.461c0-0.936-0.759-1.693-1.694-1.693c-0.934,0-1.692,0.758-1.692,1.693
			c0,0.162,0.024,0.316,0.065,0.465c-1.896,0.67-3.254,2.479-3.254,4.605v3.742c0,0.158,0.008,0.309,0.021,0.451l-1.887,1.826
			c0,0.41,0.33,0.74,0.74,0.74h4.33c-0.01,0.076-0.017,0.15-0.017,0.23c0,0.934,0.759,1.693,1.692,1.693
			c0.936,0,1.694-0.76,1.694-1.693c0-0.08-0.008-0.154-0.019-0.23h4.34c0.409,0,0.74-0.33,0.74-0.74L277.062,280.993z
			 M271.252,271.731c0-0.52,0.422-0.941,0.941-0.941c0.521,0,0.942,0.422,0.942,0.941c0,0.094-0.017,0.182-0.042,0.268
			c-0.291-0.055-0.59-0.084-0.895-0.084c-0.311,0-0.612,0.031-0.904,0.086C271.269,271.915,271.252,271.825,271.252,271.731z"/>
	</g>
	<circle fill="#E30000" cx="278.949" cy="271.958" r="5.776"/>
	<circle fill="#E30000" cx="273.173" cy="271.958" r="5.776"/>
	<rect x="273.173" y="266.182" fill="#E30000" width="5.902" height="5.902"/>
	<rect x="273.173" y="271.833" fill="#E30000" width="5.902" height="5.901"/>
</g>
<polygon fill="#DDDDDD" points="33.559,20.215 29.785,16.441 24.999,21.226 20.215,16.441 16.441,20.215 21.225,25 16.441,29.784 
	20.215,33.559 24.999,28.773 29.784,33.559 33.558,29.784 28.774,25 "/>
<g>
	<g>
		<path fill="#8E8E8E" d="M480.754,463.476v19.272h-15.528v-15.233l4.034-4.025v-0.014H480.754 M479.148,465.082h-8.283v4.039
			h-4.034v12.022h12.317V465.082L479.148,465.082z"/>
	</g>
</g>
<g>
	<g>
		<path fill="#8E8E8E" d="M485.226,467.949v19.271h-15.528v-15.233l4.035-4.026v-0.012H485.226 M483.62,469.554h-8.282v4.038h-4.035
			v12.022h12.317V469.554L483.62,469.554z"/>
	</g>
</g>
<g>
	<path fill="#8E8E8E" d="M538.226,516.913H523.09v13.181h6.874c0.54-1.183,1.73-2.007,3.113-2.007c1.382,0,2.572,0.824,3.112,2.007
		h2.036V516.913z"/>
	<path fill="#8E8E8E" d="M518.663,528.086c1.134,0,2.139,0.557,2.762,1.408v-8.856h-5.741l-3.458,3.818v5.636h3.326
		C516.092,528.911,517.281,528.086,518.663,528.086z M514.351,524.816l1.93-2.292h3.067v4.106h-4.997V524.816z"/>
	<circle fill="#8E8E8E" cx="518.663" cy="531.508" r="2.276"/>
	<circle fill="#8E8E8E" cx="533.077" cy="531.508" r="2.276"/>
</g>
<polygon fill="#8E8E8E" points="583.501,583.728 583.501,565.236 579.501,565.236 579.501,583.728 577.251,583.728 577.251,573.507 
	573.251,573.507 573.251,583.728 571.001,583.728 571.001,568.986 567.001,568.986 567.001,583.728 565.251,583.728 
	565.251,585.513 585.251,585.513 585.251,583.728 "/>
<path fill="#8E8E8E" d="M632.747,629.728c-1.207-0.537-3-1.92-5.654-2.395c0.68-0.727,1.193-1.863,1.721-3.209
	c0.307-0.779,0.254-1.443,0.254-2.391c0-0.699,0.132-1.822-0.041-2.439c-0.586-2.082-2.064-2.658-3.798-2.658
	c-1.734,0-3.216,0.578-3.8,2.666c-0.172,0.613-0.039,1.734-0.039,2.432c0,0.947-0.053,1.615,0.255,2.396
	c0.532,1.352,1.038,2.488,1.715,3.211c-2.633,0.484-4.411,1.855-5.612,2.391c-2.482,1.109-2.495,2.32-2.495,2.32v2.059h20v-2.059
	C635.252,632.052,635.24,630.837,632.747,629.728z"/>
<g>
	<path fill="#8E8E8E" d="M675.153,665.375c-5.523,0-10,4.477-10,10c0,5.522,4.477,10,10,10c5.521,0,10-4.478,10-10
		C685.153,669.851,680.675,665.375,675.153,665.375z M681.341,674.506c-0.076,0.089-0.156,0.152-0.246,0.212l-2.816,1.859
		c-0.047,0.02-0.127,0.159-0.119,0.258c0,0.027,0.004,0.049,0.008,0.063l1.238,3.629c0.037,0.112,0.062,0.219,0.064,0.351
		c-0.002,0.102-0.016,0.238-0.121,0.388c-0.102,0.147-0.305,0.235-0.449,0.235c-0.008,0-0.014,0-0.021,0
		c-0.283-0.016-0.402-0.124-0.545-0.229l-2.918-2.376c-0.023-0.02-0.076-0.042-0.141-0.041c-0.064-0.001-0.121,0.023-0.145,0.045
		l-2.768,2.357c-0.145,0.107-0.264,0.222-0.555,0.237c-0.152,0.01-0.375-0.088-0.477-0.242c-0.104-0.15-0.115-0.285-0.117-0.389
		c0-0.123,0.023-0.224,0.055-0.327l1.1-3.606c0.006-0.016,0.008-0.037,0.008-0.063c0.008-0.104-0.08-0.262-0.131-0.283l-2.83-1.865
		c-0.09-0.06-0.17-0.123-0.246-0.212c-0.072-0.088-0.16-0.215-0.164-0.423c-0.002-0.13,0.051-0.275,0.131-0.369
		c0.078-0.096,0.166-0.147,0.242-0.182c0.152-0.064,0.279-0.073,0.414-0.075l3.514-0.002c0.033,0.002,0.107-0.02,0.17-0.069
		c0.064-0.047,0.105-0.113,0.111-0.146l1.018-3.655c0.033-0.114,0.07-0.22,0.146-0.333c0.07-0.104,0.225-0.273,0.504-0.279
		c0.277,0.007,0.432,0.177,0.502,0.279c0.076,0.113,0.113,0.217,0.146,0.332l1.018,3.656c0.008,0.032,0.049,0.099,0.111,0.146
		c0.062,0.05,0.139,0.071,0.172,0.069l3.512,0.002c0.102,0,0.199,0.008,0.307,0.036c0.104,0.031,0.23,0.079,0.352,0.222
		c0.078,0.094,0.133,0.238,0.129,0.368C681.499,674.292,681.411,674.418,681.341,674.506z"/>
</g>
<g>
	<path fill="#8E8E8E" d="M730.214,728.408c0.016-0.143,0.023-0.291,0.023-0.449v-3.742c0-2.129-1.363-3.939-3.262-4.609
		c0.039-0.146,0.064-0.301,0.064-0.461c0-0.936-0.759-1.693-1.693-1.693c-0.936,0-1.692,0.758-1.692,1.693
		c0,0.162,0.024,0.316,0.065,0.465c-1.896,0.67-3.256,2.479-3.256,4.605v3.742c0,0.158,0.01,0.309,0.023,0.451l-1.887,1.826
		c0,0.41,0.33,0.74,0.738,0.74h4.333c-0.011,0.076-0.018,0.15-0.018,0.23c0,0.934,0.757,1.693,1.692,1.693
		c0.935,0,1.693-0.76,1.693-1.693c0-0.08-0.008-0.154-0.018-0.23h4.34c0.408,0,0.74-0.33,0.74-0.74L730.214,728.408z
		 M724.404,719.146c0-0.52,0.422-0.941,0.942-0.941c0.52,0,0.941,0.422,0.941,0.941c0,0.094-0.018,0.182-0.043,0.268
		c-0.29-0.055-0.589-0.084-0.895-0.084c-0.308,0-0.61,0.031-0.902,0.086C724.423,719.33,724.404,719.24,724.404,719.146z"/>
</g>
<g>
	<rect x="863.896" y="865.04" fill="#8E8E8E" width="21.983" height="3.75"/>
	<rect x="863.896" y="873.015" fill="#8E8E8E" width="21.983" height="3.751"/>
	<rect x="863.896" y="881.035" fill="#8E8E8E" width="21.983" height="3.75"/>
</g>
<g>
	<rect x="414.284" y="415.427" fill="#FFE6BC" width="21.983" height="3.75"/>
	<rect x="414.284" y="423.403" fill="#FFE6BC" width="21.983" height="3.751"/>
	<rect x="414.284" y="431.422" fill="#FFE6BC" width="21.983" height="3.75"/>
</g>
<polygon fill="#DDDDDD" points="919.978,920.101 918.015,922.545 924.9,929.765 931.784,922.476 929.822,920.033 924.9,925.278 "/>
<g>
	<g>
		<path fill="#8E8E8E" d="M974.313,978.996c-0.558-0.002-1.06,0.168-1.432,0.517c-0.378,0.349-0.567,0.847-0.563,1.397
			c-0.004,0.551,0.186,1.049,0.562,1.404c0.367,0.354,0.866,0.528,1.42,0.528c0.005,0,0.009,0,0.014,0
			c0.582,0.002,1.1-0.167,1.475-0.529c0.376-0.354,0.564-0.853,0.561-1.403c0.004-0.551-0.185-1.049-0.563-1.397
			C975.408,979.16,974.894,978.994,974.313,978.996z"/>
		<path fill="#8E8E8E" d="M978.26,968c-0.806-0.692-1.907-1.021-3.248-1.02c-0.987,0-1.843,0.119-2.569,0.368
			c-0.704,0.241-1.332,0.55-1.882,0.926l-0.257,0.176l1.354,2.602l0.327-0.227c0.163-0.112,0.353-0.225,0.568-0.336
			c0.212-0.109,0.434-0.206,0.667-0.29c0.229-0.082,0.459-0.146,0.688-0.191c0.226-0.044,0.437-0.064,0.63-0.064
			c0.643-0.003,1.017,0.144,1.17,0.318c0.198,0.216,0.306,0.495,0.309,0.912c-0.002,0.314-0.073,0.557-0.209,0.761
			c-0.161,0.241-0.363,0.479-0.614,0.708c-0.264,0.243-0.548,0.496-0.854,0.763c-0.334,0.289-0.629,0.629-0.885,1.017
			c-0.264,0.4-0.466,0.866-0.61,1.396c-0.103,0.368-0.149,0.78-0.149,1.233c0,0.226,0.012,0.462,0.035,0.71l0.03,0.317h0.319h2.631
			v-0.351c0-0.538,0.091-0.955,0.249-1.256c0.177-0.342,0.39-0.638,0.64-0.896c0.26-0.265,0.548-0.518,0.862-0.753
			c0.35-0.263,0.671-0.565,0.96-0.906c0.302-0.354,0.551-0.779,0.747-1.268c0.208-0.517,0.303-1.138,0.303-1.867
			C979.477,969.651,979.065,968.686,978.26,968z"/>
	</g>
	<g>
		<path fill="#8E8E8E" d="M974.888,989.912c-8.271,0-15-6.729-15-15s6.729-15,15-15c8.271,0,15,6.729,15,15
			S983.159,989.912,974.888,989.912z M974.888,962.776c-6.692,0-12.136,5.444-12.136,12.136c0,6.692,5.443,12.136,12.136,12.136
			s12.136-5.443,12.136-12.136C987.023,968.22,981.58,962.776,974.888,962.776z"/>
	</g>
</g>
<g>
	<path fill="#8E8E8E" d="M1039.099,1022.219l-4.48-0.825c-0.435-0.08-0.588-0.444-0.341-0.812l2.57-3.811
		c0.247-0.367,0.193-0.921-0.119-1.234l-2.466-2.465c-0.312-0.312-0.868-0.366-1.234-0.119l-3.811,2.57
		c-0.366,0.248-0.731,0.094-0.812-0.34l-0.825-4.482c-0.08-0.435-0.507-0.79-0.949-0.79h-3.487c-0.441,0-0.869,0.355-0.948,0.79
		l-0.825,4.481c-0.08,0.434-0.445,0.588-0.812,0.341l-3.811-2.57c-0.366-0.247-0.921-0.193-1.233,0.119l-2.467,2.465
		c-0.312,0.313-0.365,0.869-0.118,1.235l2.569,3.81c0.247,0.367,0.094,0.731-0.341,0.812l-4.48,0.825
		c-0.435,0.08-0.79,0.507-0.79,0.949v3.486c0,0.442,0.355,0.869,0.79,0.949l4.482,0.825c0.434,0.08,0.587,0.445,0.34,0.812
		l-2.57,3.811c-0.247,0.367-0.194,0.922,0.118,1.234l2.467,2.466c0.312,0.312,0.867,0.366,1.233,0.118l3.811-2.569
		c0.366-0.247,0.731-0.093,0.812,0.341l0.825,4.48c0.079,0.435,0.507,0.79,0.948,0.79h3.487c0.442,0,0.869-0.355,0.949-0.79
		l0.825-4.481c0.08-0.434,0.445-0.588,0.812-0.34l3.811,2.569c0.366,0.248,0.922,0.194,1.234-0.118l2.466-2.465
		c0.312-0.313,0.365-0.868,0.118-1.234l-2.57-3.812c-0.247-0.366-0.094-0.731,0.34-0.812l4.482-0.825
		c0.435-0.08,0.79-0.507,0.79-0.949v-3.486C1039.889,1022.726,1039.533,1022.299,1039.099,1022.219z M1024.887,1030.344
		c-2.994,0-5.42-2.427-5.42-5.42c0-2.994,2.426-5.42,5.42-5.42c2.993,0,5.42,2.426,5.42,5.42
		C1030.307,1027.917,1027.88,1030.344,1024.887,1030.344z"/>
</g>
<g>
	<path fill="#8E8E8E" d="M782.64,776.452c-0.824,0-1.582-0.271-2.201-0.723v5.55h-10.336v-5.56
		c-0.619,0.458-1.383,0.732-2.211,0.732c-0.289,0-0.57-0.036-0.84-0.099v5.076c-0.506,0.73-1.787,3.908-1.787,3.908
		c0,0.306,0.248,0.554,0.553,0.554h18.895c0.305,0,0.553-0.248,0.553-0.554c0,0-1.26-3.127-1.773-3.891v-5.097
		C783.216,776.415,782.933,776.452,782.64,776.452z"/>
	<path fill="#8E8E8E" d="M765.415,771.851c-0.051,0.142-0.088,0.289-0.113,0.44c-0.023,0.095-0.037,0.149-0.037,0.149
		c0,0.031,0.004,0.062,0.01,0.092c-0.004,0.061-0.01,0.121-0.01,0.184c0,1.45,1.176,2.626,2.627,2.626
		c1.102,0,2.045-0.681,2.434-1.645c0.158,0.392,0.408,0.736,0.723,1.007c0.459,0.396,1.057,0.638,1.711,0.638
		c1.152,0,2.127-0.741,2.482-1.772c0.354,1.031,1.33,1.772,2.48,1.772c0.67,0,1.279-0.253,1.744-0.666
		c0.316-0.282,0.564-0.639,0.715-1.044c0.371,0.998,1.33,1.71,2.459,1.71c1.449,0,2.625-1.176,2.625-2.626
		c0-0.062-0.004-0.123-0.008-0.184c0.004-0.03,0.008-0.061,0.008-0.092c0,0-0.014-0.055-0.037-0.149
		c-0.025-0.151-0.062-0.299-0.111-0.441c-0.143-0.559-0.371-1.448-0.621-2.372c-0.469-1.736-1.008-3.593-1.17-3.593h-16.119
		c-0.164,0-0.703,1.856-1.172,3.593C765.786,770.402,765.556,771.292,765.415,771.851z"/>
</g>
<g>
	<g>
		<path fill="#FFE6BC" d="M1580.188,1562.911v19.272h-15.528v-15.233l4.034-4.025v-0.014H1580.188 M1578.583,1564.516h-8.283v4.039
			h-4.034v12.022h12.317V1564.516L1578.583,1564.516z"/>
	</g>
</g>
<g>
	<g>
		<path fill="#FFE6BC" d="M1584.66,1567.383v19.271h-15.528v-15.233l4.035-4.026v-0.012H1584.66 M1583.055,1568.989h-8.282v4.038
			h-4.035v12.022h12.317V1568.989L1583.055,1568.989z"/>
	</g>
</g>
<g>
	<path fill="#FFE6BC" d="M1637.66,1616.347h-15.136v13.181h6.874c0.54-1.183,1.73-2.007,3.113-2.007
		c1.382,0,2.572,0.824,3.112,2.007h2.036V1616.347z"/>
	<path fill="#FFE6BC" d="M1618.098,1627.521c1.134,0,2.139,0.557,2.762,1.408v-8.856h-5.741l-3.458,3.818v5.636h3.326
		C1615.526,1628.345,1616.716,1627.521,1618.098,1627.521z M1613.785,1624.25l1.93-2.292h3.067v4.106h-4.997V1624.25z"/>
	<circle fill="#FFE6BC" cx="1618.098" cy="1630.942" r="2.276"/>
	<circle fill="#FFE6BC" cx="1632.512" cy="1630.942" r="2.276"/>
</g>
<polygon fill="#FFE6BC" points="1682.936,1683.163 1682.936,1664.67 1678.936,1664.67 1678.936,1683.163 1676.686,1683.163 
	1676.686,1672.942 1672.686,1672.942 1672.686,1683.163 1670.436,1683.163 1670.436,1668.42 1666.436,1668.42 1666.436,1683.163 
	1664.686,1683.163 1664.686,1684.948 1684.686,1684.948 1684.686,1683.163 "/>
<path fill="#FFE6BC" d="M1732.182,1729.163c-1.207-0.537-3-1.92-5.654-2.395c0.68-0.727,1.193-1.863,1.721-3.209
	c0.307-0.779,0.254-1.443,0.254-2.391c0-0.699,0.132-1.822-0.041-2.439c-0.586-2.082-2.064-2.658-3.798-2.658
	c-1.734,0-3.216,0.578-3.8,2.666c-0.172,0.613-0.039,1.734-0.039,2.432c0,0.947-0.053,1.615,0.255,2.396
	c0.532,1.352,1.038,2.488,1.715,3.211c-2.633,0.484-4.411,1.855-5.612,2.391c-2.482,1.109-2.495,2.32-2.495,2.32v2.059h20v-2.059
	C1734.687,1731.487,1734.675,1730.272,1732.182,1729.163z"/>
<g>
	<path fill="#FFE6BC" d="M1774.588,1764.809c-5.523,0-10,4.477-10,10c0,5.522,4.477,10,10,10c5.521,0,10-4.478,10-10
		C1784.588,1769.286,1780.109,1764.809,1774.588,1764.809z M1780.775,1773.941c-0.076,0.089-0.156,0.152-0.246,0.212l-2.816,1.859
		c-0.047,0.02-0.127,0.159-0.119,0.258c0,0.027,0.004,0.049,0.008,0.063l1.238,3.629c0.037,0.112,0.062,0.219,0.064,0.351
		c-0.002,0.102-0.016,0.238-0.121,0.388c-0.102,0.147-0.305,0.235-0.449,0.235c-0.008,0-0.014,0-0.021,0
		c-0.283-0.016-0.402-0.124-0.545-0.229l-2.918-2.376c-0.023-0.02-0.076-0.042-0.141-0.041c-0.064-0.001-0.121,0.023-0.145,0.045
		l-2.768,2.357c-0.145,0.107-0.264,0.222-0.555,0.237c-0.152,0.01-0.375-0.088-0.477-0.242c-0.104-0.15-0.115-0.285-0.117-0.389
		c0-0.123,0.023-0.224,0.055-0.327l1.1-3.606c0.006-0.016,0.008-0.037,0.008-0.063c0.008-0.104-0.08-0.262-0.131-0.283l-2.83-1.865
		c-0.09-0.06-0.17-0.123-0.246-0.212c-0.072-0.088-0.16-0.215-0.164-0.423c-0.002-0.13,0.051-0.275,0.131-0.369
		c0.078-0.096,0.166-0.147,0.242-0.182c0.152-0.064,0.279-0.073,0.414-0.075l3.514-0.002c0.033,0.002,0.107-0.02,0.17-0.069
		c0.064-0.047,0.105-0.113,0.111-0.146l1.018-3.655c0.033-0.114,0.07-0.22,0.146-0.333c0.07-0.104,0.225-0.273,0.504-0.279
		c0.277,0.007,0.432,0.177,0.502,0.279c0.076,0.113,0.113,0.217,0.146,0.332l1.018,3.656c0.008,0.032,0.049,0.099,0.111,0.146
		c0.062,0.05,0.139,0.071,0.172,0.069l3.512,0.002c0.102,0,0.199,0.008,0.307,0.036c0.104,0.031,0.23,0.079,0.352,0.222
		c0.078,0.094,0.133,0.238,0.129,0.368C1780.934,1773.726,1780.846,1773.853,1780.775,1773.941z"/>
</g>
<g>
	<path fill="#FFE6BC" d="M1829.648,1827.842c0.016-0.143,0.023-0.291,0.023-0.449v-3.742c0-2.129-1.363-3.939-3.262-4.609
		c0.039-0.146,0.064-0.301,0.064-0.461c0-0.936-0.759-1.693-1.693-1.693c-0.936,0-1.692,0.758-1.692,1.693
		c0,0.162,0.024,0.316,0.065,0.465c-1.896,0.67-3.256,2.479-3.256,4.605v3.742c0,0.158,0.01,0.309,0.023,0.451l-1.887,1.826
		c0,0.41,0.33,0.74,0.738,0.74h4.333c-0.011,0.076-0.018,0.15-0.018,0.23c0,0.934,0.757,1.693,1.692,1.693
		c0.935,0,1.693-0.76,1.693-1.693c0-0.08-0.008-0.154-0.018-0.23h4.34c0.408,0,0.74-0.33,0.74-0.74L1829.648,1827.842z
		 M1823.839,1818.581c0-0.52,0.422-0.941,0.942-0.941c0.52,0,0.941,0.422,0.941,0.941c0,0.094-0.018,0.182-0.043,0.268
		c-0.29-0.055-0.589-0.084-0.895-0.084c-0.308,0-0.61,0.031-0.902,0.086C1823.857,1818.764,1823.839,1818.674,1823.839,1818.581z"/>
</g>
<g>
	<path fill="#FFE6BC" d="M1882.086,1877.591c-0.823,0-1.582-0.271-2.2-0.723v5.55h-10.336v-5.56
		c-0.62,0.458-1.384,0.732-2.212,0.732c-0.289,0-0.569-0.036-0.84-0.099v5.076c-0.506,0.73-1.786,3.908-1.786,3.908
		c0,0.306,0.247,0.554,0.553,0.554h18.895c0.305,0,0.553-0.248,0.553-0.554c0,0-1.26-3.127-1.774-3.891v-5.097
		C1882.663,1877.554,1882.379,1877.591,1882.086,1877.591z"/>
	<path fill="#FFE6BC" d="M1864.861,1872.991c-0.05,0.142-0.088,0.289-0.112,0.44c-0.023,0.095-0.037,0.149-0.037,0.149
		c0,0.031,0.004,0.062,0.009,0.092c-0.004,0.061-0.009,0.121-0.009,0.184c0,1.45,1.176,2.626,2.626,2.626
		c1.103,0,2.045-0.681,2.435-1.645c0.158,0.392,0.407,0.736,0.723,1.007c0.459,0.396,1.057,0.638,1.711,0.638
		c1.151,0,2.127-0.741,2.481-1.772c0.354,1.031,1.33,1.772,2.481,1.772c0.67,0,1.279-0.253,1.743-0.666
		c0.316-0.282,0.564-0.639,0.715-1.044c0.372,0.998,1.331,1.71,2.459,1.71c1.45,0,2.626-1.176,2.626-2.626
		c0-0.062-0.005-0.123-0.009-0.184c0.005-0.03,0.009-0.061,0.009-0.092c0,0-0.014-0.055-0.037-0.149
		c-0.025-0.151-0.062-0.299-0.112-0.441c-0.143-0.559-0.371-1.448-0.621-2.372c-0.468-1.736-1.007-3.593-1.17-3.593h-16.119
		c-0.163,0-0.702,1.856-1.171,3.593C1865.232,1871.542,1865.003,1872.431,1864.861,1872.991z"/>
</g>
<g>
	<path fill="#343D55" d="M832.274,826.633c-0.822,0-1.582-0.271-2.199-0.723v5.55h-10.336v-5.56
		c-0.621,0.458-1.385,0.732-2.213,0.732c-0.289,0-0.568-0.036-0.84-0.099v5.076c-0.506,0.73-1.785,3.908-1.785,3.908
		c0,0.306,0.246,0.554,0.553,0.554h18.895c0.305,0,0.553-0.248,0.553-0.554c0,0-1.26-3.127-1.775-3.891v-5.097
		C832.853,826.596,832.567,826.633,832.274,826.633z"/>
	<path fill="#343D55" d="M815.05,822.033c-0.049,0.142-0.088,0.289-0.111,0.44c-0.023,0.095-0.037,0.149-0.037,0.149
		c0,0.031,0.004,0.062,0.008,0.092c-0.004,0.061-0.008,0.121-0.008,0.184c0,1.45,1.176,2.626,2.625,2.626
		c1.104,0,2.045-0.681,2.436-1.645c0.158,0.392,0.406,0.736,0.723,1.007c0.459,0.396,1.057,0.638,1.711,0.638
		c1.15,0,2.127-0.741,2.48-1.772c0.355,1.031,1.33,1.772,2.482,1.772c0.67,0,1.279-0.253,1.742-0.666
		c0.316-0.282,0.564-0.639,0.715-1.044c0.373,0.998,1.332,1.71,2.459,1.71c1.451,0,2.627-1.176,2.627-2.626
		c0-0.062-0.006-0.123-0.01-0.184c0.006-0.03,0.01-0.061,0.01-0.092c0,0-0.014-0.055-0.037-0.149
		c-0.025-0.151-0.062-0.299-0.113-0.441c-0.143-0.559-0.371-1.448-0.621-2.372c-0.467-1.736-1.006-3.593-1.17-3.593h-16.119
		c-0.162,0-0.701,1.856-1.17,3.593C815.421,820.583,815.192,821.473,815.05,822.033z"/>
</g>
<g>
	<path fill="#343D55" d="M1084.021,1081.701l-5.18-5.178c0.709-1.132,1.119-2.473,1.119-3.904c0-4.072-3.301-7.373-7.371-7.373
		c-4.071,0-7.372,3.301-7.372,7.373c0,4.07,3.301,7.37,7.372,7.37c1.439,0,2.786-0.414,3.922-1.13l5.175,5.175
		c0.357,0.355,0.821,0.543,1.284,0.543c0.004,0,0.006,0,0.008,0c0.402,0,0.814-0.15,1.123-0.457
		c0.312-0.313,0.461-0.726,0.459-1.134C1084.56,1082.522,1084.374,1082.055,1084.021,1081.701z M1076.699,1072.619
		c-0.003,2.266-1.845,4.107-4.11,4.111c-2.267-0.004-4.107-1.846-4.11-4.111c0.003-2.266,1.844-4.107,4.11-4.111
		C1074.854,1068.511,1076.696,1070.353,1076.699,1072.619z"/>
</g>
<g>
	<path fill="#8E8E8E" d="M1133.502,1114.912h-1.859h-15.367c-1.072,0-1.387,0.314-1.387,1.387v15.284l0.146,0.146l3.183,3.183h0.925
		v-3.183v-2.69h9.364v2.69v3.183h4.995c1.072,0,1.387-0.314,1.387-1.387v-17.227
		C1134.889,1115.226,1134.574,1114.912,1133.502,1114.912z M1131.791,1124.969h-0.148h-13.702v-9.063h13.702h0.148V1124.969z"/>
	<rect x="1121.208" y="1131.082" fill="#8E8E8E" width="2.392" height="3.83"/>
</g>
<g>
	<path fill="#FFE6BC" d="M1183.502,1164.912h-1.859h-15.367c-1.072,0-1.387,0.314-1.387,1.387v15.284l0.146,0.146l3.183,3.183h0.925
		v-3.183v-2.69h9.364v2.69v3.183h4.995c1.072,0,1.387-0.314,1.387-1.387v-17.227
		C1184.889,1165.226,1184.574,1164.912,1183.502,1164.912z M1181.791,1174.969h-0.148h-13.702v-9.063h13.702h0.148V1174.969z"/>
	<rect x="1171.208" y="1181.082" fill="#FFE6BC" width="2.392" height="3.83"/>
</g>
<polygon fill="#343D55" points="1231.5,1217.763 1227.951,1214.912 1217.464,1224.913 1228.051,1234.912 1231.601,1232.062 
	1223.982,1224.913 "/>
<polygon fill="#343D55" points="1267.564,1282.06 1271.114,1284.912 1281.601,1274.912 1271.013,1264.912 1267.464,1267.763 
	1275.083,1274.912 "/>
<g>
	<path fill="#343D55" d="M1319.751,1312.6l-5.243,5.249v19.375h20.048V1312.6H1319.751z M1317.538,1334.193v-13.626h4.932v-4.936
		h9.055v18.562H1317.538z"/>
</g>
<g>
	<g>
		<path fill="#343D55" d="M1385.95,1379.878c0.217-0.572,0.326-1.175,0.326-1.794c0-2.794-2.271-5.066-5.064-5.066
			c-0.418,0-0.834,0.052-1.236,0.153c-0.617-0.808-1.57-1.283-2.592-1.283c-1.449,0-2.703,0.947-3.117,2.303
			c-0.281-0.109-0.582-0.167-0.887-0.167c-1.352,0-2.451,1.101-2.451,2.452c0,0.087,0.004,0.174,0.014,0.262
			c-1.068,0.777-1.701,2.01-1.701,3.336c0,1.527,0.854,2.931,2.193,3.644c-0.033,0.173-0.051,0.348-0.051,0.522
			c0,1.473,1.197,2.672,2.672,2.672c0.668,0,1.307-0.251,1.797-0.697c0.777,0.765,1.824,1.197,2.918,1.197
			c1.59,0,3.025-0.896,3.729-2.304c0.264,0.066,0.533,0.101,0.803,0.101c1.832,0,3.324-1.491,3.324-3.324
			C1386.626,1381.16,1386.388,1380.455,1385.95,1379.878z M1383.302,1383.433c-0.166,0-0.332-0.029-0.496-0.084l-0.225-0.076
			c-0.113-0.682-0.383-1.115-0.596-1.365c-0.338-0.394-0.689-0.533-0.789-0.566c-0.08-0.026-0.162-0.04-0.244-0.04
			c-0.334,0-0.627,0.213-0.732,0.529c-0.131,0.397,0.072,0.818,0.461,0.965c0.01,0.005,0.074,0.041,0.152,0.14
			c0.162,0.213,0.25,0.536,0.26,0.958l-0.115,0.277c-0.375,0.891-1.24,1.466-2.207,1.466c-0.689,0-1.348-0.302-1.805-0.828
			l-0.887-1.021c-0.059-0.067-0.143-0.105-0.23-0.105h-0.002c-0.088,0-0.174,0.04-0.23,0.107l-0.879,1.03
			c-0.172,0.201-0.42,0.317-0.682,0.317c-0.494,0-0.896-0.402-0.896-0.896c0-0.088,0.012-0.176,0.039-0.262l0.295-0.976
			c0.043-0.146-0.027-0.303-0.166-0.366l-0.928-0.422c-0.84-0.382-1.383-1.223-1.383-2.141c0-0.793,0.398-1.527,1.064-1.966
			l0.648-0.426c0.102-0.068,0.154-0.191,0.131-0.312l-0.143-0.763c-0.01-0.048-0.014-0.091-0.014-0.131
			c0-0.373,0.303-0.677,0.676-0.677c0.121,0,0.236,0.032,0.344,0.096l1.447,0.86c0.049,0.028,0.102,0.043,0.156,0.043
			c0.043,0,0.088-0.009,0.127-0.027c0.092-0.042,0.156-0.126,0.174-0.225l0.295-1.658c0.125-0.71,0.74-1.225,1.461-1.225
			c0.498,0,0.963,0.25,1.24,0.669l0.477,0.721c0.057,0.087,0.154,0.137,0.254,0.137c0.029,0,0.059-0.004,0.088-0.013l0.828-0.246
			c0.305-0.092,0.621-0.138,0.941-0.138c1.814,0,3.289,1.477,3.289,3.291c0,0.442-0.086,0.872-0.256,1.275l-0.277,0.66
			c-0.045,0.106-0.025,0.229,0.049,0.316l0.465,0.547c0.168,0.198,0.369,0.532,0.369,1.001
			C1384.851,1382.738,1384.155,1383.433,1383.302,1383.433z"/>
		<path fill="#343D55" d="M1382.12,1379.446c-0.025,0-0.049,0.001-0.074,0.004c-0.203,0.019-0.398,0.028-0.582,0.028
			c-1.406-0.012-1.924-0.528-2.217-0.977c-0.367-0.574-0.381-1.285-0.381-1.422c0-0.052,0.002-0.08,0.004-0.096
			c0-0.007,0-0.013,0-0.019c0.031-0.418-0.279-0.786-0.697-0.825c-0.023-0.002-0.049-0.003-0.072-0.003
			c-0.398,0-0.727,0.298-0.766,0.694v0.001c0,0.004-0.01,0.09-0.01,0.244c0.004,0.835,0.219,1.613,0.619,2.252
			c0.389,0.631,1.357,1.692,3.475,1.692h0.025h0.02c0.234,0,0.48-0.013,0.729-0.036c0.205-0.02,0.391-0.118,0.521-0.276
			c0.131-0.159,0.191-0.359,0.174-0.564C1382.849,1379.746,1382.519,1379.446,1382.12,1379.446z"/>
		<path fill="#343D55" d="M1377.069,1382.062l-0.002-0.005c-0.053-0.324-0.182-0.584-0.281-0.745
			c-0.156-0.266-0.459-0.564-0.881-0.721c0.064-0.229,0.096-0.463,0.096-0.69c-0.01-0.679-0.256-1.377-0.695-1.969l-0.01-0.013
			c-0.006-0.008-0.012-0.016-0.018-0.023c-0.148-0.182-0.367-0.287-0.602-0.287c-0.176,0-0.348,0.062-0.482,0.172
			c-0.16,0.128-0.262,0.312-0.283,0.517c-0.021,0.204,0.035,0.403,0.162,0.563l0.01,0.013c0.002,0.002,0.004,0.005,0.006,0.007
			c0.062,0.077,0.375,0.564,0.369,1.019c-0.004,0.226-0.049,0.479-0.35,0.792c-0.186,0.188-0.258,0.46-0.195,0.719
			c0.004,0.068,0.016,0.131,0.035,0.191c0.105,0.316,0.398,0.529,0.73,0.529c0.084,0,0.164-0.014,0.244-0.039
			c0.162-0.054,0.273-0.066,0.338-0.067c0.139,0.006,0.152,0.017,0.221,0.112c0.02,0.032,0.039,0.076,0.053,0.119
			c0.004,0.016,0.008,0.028,0.01,0.037c0,0.003,0,0.006,0.002,0.009c0.059,0.373,0.385,0.651,0.76,0.651
			c0.037,0,0.072-0.002,0.107-0.007c0.203-0.028,0.383-0.134,0.508-0.298s0.178-0.366,0.15-0.57
			C1377.071,1382.072,1377.069,1382.067,1377.069,1382.062z"/>
	</g>
	<g>
		<polyline fill="#343D55" points="1369.466,1387.036 1369.466,1384.004 1365.47,1384.004 1365.47,1370.378 1370.399,1370.378 
			1370.399,1365.443 1379.456,1365.443 1379.456,1370.387 1382.487,1370.387 1382.487,1362.412 1367.683,1362.412 
			1362.438,1367.661 1362.438,1387.036 		"/>
		<line fill="#343D55" x1="1369.466" y1="1384.004" x2="1369.466" y2="1387.036"/>
	</g>
</g>
<g>
	<g>
		<path fill="#343D55" d="M1533.607,1523.395h-1.29h-10.659c-0.744,0-0.963,0.218-0.963,0.962v10.602l0.103,0.102l2.207,2.208h0.642
			v-2.208v-1.866h6.496v1.866v2.208h3.465c0.744,0,0.962-0.219,0.962-0.962v-11.949
			C1534.569,1523.613,1534.352,1523.395,1533.607,1523.395z M1532.42,1530.372h-0.103h-9.505v-6.287h9.505h0.103V1530.372z"/>
		<rect x="1525.079" y="1534.612" fill="#343D55" width="1.659" height="2.656"/>
	</g>
	<g>
		<polyline fill="#343D55" points="1519.098,1537.179 1519.098,1534.148 1517.526,1534.148 1517.526,1520.522 1522.457,1520.522 
			1522.457,1515.586 1531.513,1515.586 1531.513,1521.905 1534.544,1521.905 1534.544,1512.555 1519.739,1512.555 
			1514.495,1517.804 1514.495,1537.179 		"/>
	</g>
</g>
<g>
	<g>
		<path fill="#343D55" d="M1419.83,1432.488c-0.261-0.262-0.261-0.69,0.001-0.952l1.682-1.683c0.262-0.262,0.691-0.262,0.953,0
			l2.73,2.726c0.263,0.261,0.69,0.261,0.952-0.002l7.485-7.503c0.262-0.262,0.69-0.263,0.953-0.002l1.673,1.661
			c0.263,0.262,0.264,0.689,0.003,0.951l-9.078,9.1c-0.261,0.262-0.777,0.476-1.147,0.476h-0.784c-0.371,0-0.887-0.215-1.148-0.477
			L1419.83,1432.488z"/>
	</g>
	<g>
		<polyline fill="#343D55" points="1419.635,1437.189 1419.635,1434.158 1415.638,1434.158 1415.638,1420.532 1420.569,1420.532 
			1420.569,1415.596 1429.625,1415.596 1429.625,1424.167 1432.655,1424.167 1432.655,1412.565 1417.852,1412.565 
			1412.607,1417.814 1412.607,1437.189 		"/>
		<line fill="#343D55" x1="1432.655" y1="1424.167" x2="1429.625" y2="1424.167"/>
		<line fill="#343D55" x1="1419.635" y1="1434.158" x2="1419.635" y2="1437.189"/>
	</g>
</g>
<g>
	<g>
		<path fill="#343D55" d="M1478.484,1473.507c-3.787,0-6.857,3.07-6.857,6.857c0,3.788,3.07,6.858,6.857,6.858
			s6.857-3.07,6.857-6.858C1485.342,1476.578,1482.271,1473.507,1478.484,1473.507z M1482.292,1480.67
			c0,0.421-0.345,0.766-0.766,0.766h-6.132c-0.421,0-0.767-0.345-0.767-0.766v-0.635c0-0.422,0.346-0.767,0.767-0.767h6.132
			c0.421,0,0.766,0.345,0.766,0.767V1480.67z"/>
	</g>
	<g>
		<polyline fill="#343D55" points="1470.752,1487.223 1470.752,1484.192 1466.755,1484.192 1466.755,1470.566 1471.687,1470.566 
			1471.687,1465.63 1480.741,1465.63 1480.741,1472.33 1483.772,1472.33 1483.772,1462.599 1468.968,1462.599 1463.724,1467.848 
			1463.724,1487.223 		"/>
		<line fill="#343D55" x1="1470.752" y1="1484.192" x2="1470.752" y2="1487.223"/>
	</g>
</g>
<g>
	<path fill="#DDDDDD" d="M1938.897,1922.017l-4.48-0.825c-0.435-0.08-0.588-0.444-0.341-0.812l2.57-3.811
		c0.247-0.367,0.193-0.921-0.119-1.234l-2.466-2.465c-0.312-0.312-0.868-0.366-1.234-0.119l-3.811,2.57
		c-0.366,0.248-0.731,0.094-0.812-0.34l-0.825-4.482c-0.08-0.435-0.507-0.79-0.949-0.79h-3.487c-0.441,0-0.869,0.355-0.948,0.79
		l-0.825,4.481c-0.08,0.434-0.445,0.588-0.812,0.341l-3.811-2.57c-0.366-0.247-0.921-0.193-1.233,0.119l-2.467,2.465
		c-0.312,0.313-0.365,0.869-0.118,1.235l2.569,3.81c0.247,0.367,0.094,0.731-0.341,0.812l-4.48,0.825
		c-0.435,0.08-0.79,0.507-0.79,0.949v3.486c0,0.442,0.355,0.869,0.79,0.949l4.482,0.825c0.434,0.08,0.587,0.445,0.34,0.812
		l-2.57,3.811c-0.247,0.367-0.194,0.922,0.118,1.234l2.467,2.466c0.312,0.312,0.867,0.366,1.233,0.118l3.811-2.569
		c0.366-0.247,0.731-0.093,0.812,0.341l0.825,4.48c0.079,0.435,0.507,0.79,0.948,0.79h3.487c0.442,0,0.869-0.355,0.949-0.79
		l0.825-4.481c0.08-0.434,0.445-0.588,0.812-0.34l3.811,2.569c0.366,0.248,0.922,0.194,1.234-0.118l2.466-2.465
		c0.312-0.313,0.365-0.868,0.118-1.234l-2.57-3.812c-0.247-0.366-0.094-0.731,0.34-0.812l4.482-0.825
		c0.435-0.08,0.79-0.507,0.79-0.949v-3.486C1939.688,1922.524,1939.332,1922.097,1938.897,1922.017z M1924.686,1930.142
		c-2.994,0-5.42-2.427-5.42-5.42c0-2.994,2.426-5.42,5.42-5.42c2.993,0,5.42,2.426,5.42,5.42
		C1930.105,1927.715,1927.679,1930.142,1924.686,1930.142z"/>
</g>
<g>
	<path fill="#AAAAAA" d="M1964.92,1976.398c-0.311-0.312-0.31-0.821,0.001-1.133l2-1.999c0.312-0.312,0.82-0.312,1.132-0.001
		l3.247,3.24c0.312,0.311,0.821,0.31,1.132-0.001l8.899-8.921c0.311-0.312,0.82-0.312,1.132-0.003l1.989,1.977
		c0.312,0.31,0.313,0.818,0.003,1.13l-10.791,10.817c-0.311,0.312-0.926,0.566-1.365,0.566h-0.933c-0.44,0-1.054-0.256-1.364-0.567
		L1964.92,1976.398z"/>
</g>
<polygon fill="#AAAAAA" points="2033.247,2019.924 2029.472,2016.151 2024.687,2020.935 2019.902,2016.151 2016.128,2019.924 
	2020.913,2024.709 2016.128,2029.493 2019.902,2033.268 2024.687,2028.483 2029.472,2033.268 2033.245,2029.493 2028.462,2024.709 
	"/>
<g>
	<path fill="#8E8E8E" d="M2082.267,2072.147l-2.688-0.495c-0.261-0.049-0.353-0.267-0.204-0.487l1.541-2.286
		c0.148-0.221,0.117-0.553-0.07-0.74l-1.48-1.479c-0.188-0.188-0.521-0.22-0.74-0.071l-2.286,1.542
		c-0.22,0.149-0.438,0.057-0.487-0.204l-0.495-2.689c-0.048-0.26-0.304-0.474-0.569-0.474h-2.092c-0.266,0-0.521,0.214-0.569,0.474
		l-0.495,2.689c-0.049,0.26-0.268,0.353-0.487,0.204l-2.286-1.542c-0.22-0.148-0.553-0.116-0.74,0.071l-1.48,1.479
		c-0.188,0.188-0.219,0.521-0.07,0.74l1.541,2.286c0.148,0.221,0.057,0.438-0.204,0.487l-2.688,0.495
		c-0.26,0.048-0.474,0.304-0.474,0.569v2.092c0,0.266,0.214,0.521,0.474,0.569l2.689,0.495c0.261,0.049,0.353,0.268,0.204,0.487
		l-1.542,2.286c-0.148,0.221-0.117,0.553,0.07,0.74l1.48,1.48c0.188,0.188,0.521,0.219,0.74,0.07l2.286-1.541
		c0.22-0.148,0.438-0.057,0.487,0.204l0.495,2.688c0.048,0.26,0.304,0.474,0.569,0.474h2.092c0.266,0,0.521-0.214,0.569-0.474
		l0.495-2.689c0.049-0.26,0.268-0.353,0.487-0.203l2.286,1.541c0.22,0.148,0.553,0.117,0.74-0.07l1.48-1.479
		c0.188-0.188,0.219-0.521,0.07-0.741l-1.542-2.286c-0.148-0.22-0.057-0.438,0.204-0.487l2.689-0.495
		c0.26-0.048,0.474-0.304,0.474-0.569v-2.092C2082.74,2072.451,2082.526,2072.195,2082.267,2072.147z M2073.739,2077.022
		c-1.797,0-3.252-1.456-3.252-3.252c0-1.797,1.455-3.252,3.252-3.252c1.796,0,3.252,1.455,3.252,3.252
		C2076.991,2075.566,2075.535,2077.022,2073.739,2077.022z"/>
</g>
<g>
	<g>
		<g>
			<path fill="#8E8E8E" d="M2150.206,2114.609v38.545h-31.057v-30.467l8.068-8.051v-0.027H2150.206 M2146.995,2117.82h-16.566v8.078
				h-8.068v24.045h24.635V2117.82L2146.995,2117.82z"/>
		</g>
	</g>
	<g>
		<g>
			<path fill="#8E8E8E" d="M2159.149,2123.554v38.543h-31.057v-30.467l8.07-8.053v-0.023H2159.149 M2155.938,2126.765h-16.564v8.076
				h-8.07v24.045h24.635V2126.765L2155.938,2126.765z"/>
		</g>
	</g>
</g>
<g>
	<g>
		<g>
			<path fill="#FFE6BC" d="M2230.206,2194.693v38.545h-31.057v-30.467l8.068-8.051v-0.027H2230.206 M2226.995,2197.904h-16.566
				v8.078h-8.068v24.045h24.635V2197.904L2226.995,2197.904z"/>
		</g>
	</g>
	<g>
		<g>
			<path fill="#FFE6BC" d="M2239.149,2203.638v38.543h-31.057v-30.467l8.07-8.053v-0.023H2239.149 M2235.938,2206.849h-16.564v8.076
				h-8.07v24.045h24.635V2206.849L2235.938,2206.849z"/>
		</g>
	</g>
</g>
<g>
	<path fill="#8E8E8E" d="M2322.567,2282.54h-28.525v24.84h12.955c1.018-2.229,3.262-3.781,5.867-3.781
		c2.604,0,4.848,1.553,5.865,3.781h3.838V2282.54z"/>
	<path fill="#8E8E8E" d="M2285.7,2303.598c2.137,0,4.029,1.049,5.203,2.653v-16.69h-10.818l-6.518,7.195v10.621h6.268
		C2280.853,2305.151,2283.095,2303.598,2285.7,2303.598z M2277.571,2297.434l3.637-4.32h5.781v7.74h-9.418V2297.434z"/>
	<path fill="#8E8E8E" d="M2285.7,2305.756c-2.369,0-4.291,1.922-4.291,4.292c0,2.366,1.922,4.286,4.291,4.286
		c2.367,0,4.289-1.92,4.289-4.286C2289.989,2307.678,2288.067,2305.756,2285.7,2305.756z"/>
	<path fill="#8E8E8E" d="M2312.864,2305.756c-2.369,0-4.291,1.922-4.291,4.292c0,2.366,1.922,4.286,4.291,4.286
		s4.289-1.92,4.289-4.286C2317.153,2307.678,2315.233,2305.756,2312.864,2305.756z"/>
</g>
<g>
	<path fill="#FFE6BC" d="M2402.751,2362.54h-28.525v24.84h12.955c1.018-2.229,3.262-3.781,5.867-3.781
		c2.604,0,4.848,1.553,5.865,3.781h3.838V2362.54z"/>
	<path fill="#FFE6BC" d="M2365.884,2383.598c2.137,0,4.029,1.049,5.203,2.653v-16.69h-10.818l-6.518,7.195v10.621h6.268
		C2361.036,2385.151,2363.278,2383.598,2365.884,2383.598z M2357.755,2377.434l3.637-4.32h5.781v7.74h-9.418V2377.434z"/>
	<path fill="#FFE6BC" d="M2365.884,2385.756c-2.369,0-4.291,1.922-4.291,4.292c0,2.366,1.922,4.286,4.291,4.286
		c2.367,0,4.289-1.92,4.289-4.286C2370.173,2387.678,2368.251,2385.756,2365.884,2385.756z"/>
	<path fill="#FFE6BC" d="M2393.048,2385.756c-2.369,0-4.291,1.922-4.291,4.292c0,2.366,1.922,4.286,4.291,4.286
		s4.289-1.92,4.289-4.286C2397.337,2387.678,2395.417,2385.756,2393.048,2385.756z"/>
</g>
<polygon fill="#8E8E8E" points="2478.778,2479.321 2478.778,2433.09 2468.778,2433.09 2468.778,2479.321 2463.153,2479.321 
	2463.153,2453.769 2453.153,2453.769 2453.153,2479.321 2447.528,2479.321 2447.528,2442.465 2437.528,2442.465 2437.528,2479.321 
	2433.153,2479.321 2433.153,2483.784 2483.153,2483.784 2483.153,2479.321 "/>
<polygon fill="#FFE6BC" points="2558.778,2559.321 2558.778,2513.09 2548.778,2513.09 2548.778,2559.321 2543.153,2559.321 
	2543.153,2533.769 2533.153,2533.769 2533.153,2559.321 2527.528,2559.321 2527.528,2522.465 2517.528,2522.465 2517.528,2559.321 
	2513.153,2559.321 2513.153,2563.784 2563.153,2563.784 2563.153,2559.321 "/>
<path fill="#8E8E8E" d="M2636.891,2629.323c-3.018-1.343-7.5-4.8-14.135-5.986c1.699-1.816,2.982-4.658,4.301-8.022
	c0.768-1.948,0.635-3.608,0.635-5.977c0-1.748,0.33-4.556-0.102-6.099c-1.465-5.205-5.162-6.646-9.495-6.646
	c-4.336,0-8.04,1.445-9.499,6.665c-0.43,1.533-0.098,4.336-0.098,6.079c0,2.368-0.133,4.038,0.637,5.991
	c1.33,3.379,2.596,6.221,4.287,8.027c-6.582,1.211-11.027,4.639-14.031,5.977c-6.205,2.773-6.237,5.801-6.237,5.801v5.146h50v-5.146
	C2643.153,2635.133,2643.124,2632.096,2636.891,2629.323z"/>
<path fill="#FFE6BC" d="M2716.891,2709.323c-3.018-1.343-7.5-4.8-14.135-5.986c1.699-1.816,2.982-4.658,4.301-8.022
	c0.768-1.948,0.635-3.608,0.635-5.977c0-1.748,0.33-4.556-0.102-6.099c-1.465-5.205-5.162-6.646-9.495-6.646
	c-4.336,0-8.04,1.445-9.499,6.665c-0.43,1.533-0.098,4.336-0.098,6.079c0,2.368-0.133,4.038,0.637,5.991
	c1.33,3.379,2.596,6.221,4.287,8.027c-6.582,1.211-11.027,4.639-14.031,5.977c-6.205,2.773-6.237,5.801-6.237,5.801v5.146h50v-5.146
	C2723.153,2715.133,2723.124,2712.096,2716.891,2709.323z"/>
<g>
	<path fill="#8E8E8E" d="M2778.153,2753.437c-13.809,0-25,11.191-25,25c0,13.806,11.191,25,25,25c13.804,0,25-11.194,25-25
		C2803.153,2764.628,2791.957,2753.437,2778.153,2753.437z M2793.622,2776.266c-0.19,0.223-0.391,0.381-0.615,0.53l-7.041,4.648
		c-0.117,0.049-0.317,0.397-0.298,0.645c0,0.068,0.01,0.122,0.02,0.158l3.096,9.072c0.093,0.281,0.156,0.547,0.161,0.877
		c-0.005,0.254-0.039,0.596-0.303,0.969c-0.254,0.369-0.762,0.589-1.123,0.589c-0.02,0-0.034,0-0.054,0
		c-0.708-0.039-1.006-0.311-1.362-0.574l-7.295-5.939c-0.059-0.049-0.19-0.105-0.352-0.103c-0.161-0.003-0.303,0.059-0.361,0.112
		l-6.919,5.894c-0.361,0.269-0.659,0.554-1.387,0.593c-0.381,0.024-0.938-0.22-1.191-0.605c-0.259-0.376-0.288-0.713-0.293-0.972
		c0-0.308,0.059-0.559,0.137-0.817l2.749-9.017c0.015-0.039,0.02-0.093,0.02-0.158c0.02-0.262-0.2-0.654-0.327-0.708l-7.075-4.663
		c-0.225-0.149-0.425-0.308-0.615-0.53c-0.181-0.22-0.4-0.537-0.41-1.057c-0.005-0.325,0.127-0.688,0.327-0.923
		c0.195-0.239,0.415-0.369,0.605-0.454c0.381-0.161,0.698-0.184,1.035-0.188l8.784-0.005c0.083,0.005,0.269-0.049,0.425-0.173
		c0.161-0.117,0.264-0.283,0.278-0.364l2.544-9.138c0.083-0.286,0.176-0.55,0.366-0.833c0.176-0.259,0.562-0.684,1.26-0.698
		c0.693,0.018,1.079,0.442,1.255,0.698c0.19,0.283,0.283,0.542,0.366,0.83l2.544,9.141c0.02,0.081,0.122,0.247,0.278,0.364
		c0.156,0.124,0.347,0.178,0.43,0.173l8.779,0.005c0.254,0,0.498,0.02,0.767,0.091c0.259,0.078,0.576,0.197,0.879,0.554
		c0.195,0.234,0.332,0.596,0.322,0.921C2794.018,2775.729,2793.798,2776.046,2793.622,2776.266z"/>
</g>
<g>
	<path fill="#8E8E8E" d="M2868.133,2864.043c0.03-0.274,0.045-0.56,0.045-0.864v-7.207c0-4.1-2.625-7.586-6.28-8.875
		c0.074-0.283,0.123-0.58,0.123-0.889c0-1.801-1.461-3.26-3.26-3.26c-1.803,0-3.26,1.459-3.26,3.26c0,0.312,0.047,0.609,0.127,0.896
		c-3.652,1.29-6.27,4.772-6.27,8.868v7.207c0,0.305,0.018,0.594,0.045,0.868l-3.634,3.517c0,0.79,0.636,1.426,1.422,1.426h8.344
		c-0.021,0.146-0.034,0.289-0.034,0.443c0,1.798,1.457,3.261,3.26,3.261c1.799,0,3.26-1.463,3.26-3.261
		c0-0.154-0.015-0.297-0.033-0.443h8.357c0.785,0,1.425-0.636,1.425-1.426L2868.133,2864.043z M2856.946,2846.208
		c0-1,0.812-1.812,1.814-1.812c1,0,1.812,0.812,1.812,1.812c0,0.181-0.034,0.35-0.083,0.516c-0.559-0.105-1.134-0.162-1.723-0.162
		c-0.593,0-1.175,0.061-1.737,0.166C2856.981,2846.562,2856.946,2846.389,2856.946,2846.208z"/>
</g>
<g>
	<path fill="#FFE6BC" d="M2948.133,2944.043c0.03-0.274,0.045-0.56,0.045-0.864v-7.207c0-4.1-2.625-7.586-6.28-8.875
		c0.074-0.283,0.123-0.58,0.123-0.889c0-1.801-1.461-3.26-3.26-3.26c-1.803,0-3.26,1.459-3.26,3.26c0,0.312,0.047,0.609,0.127,0.896
		c-3.652,1.29-6.27,4.772-6.27,8.868v7.207c0,0.305,0.018,0.594,0.045,0.868l-3.634,3.517c0,0.79,0.636,1.426,1.422,1.426h8.344
		c-0.021,0.146-0.034,0.289-0.034,0.443c0,1.798,1.457,3.261,3.26,3.261c1.799,0,3.26-1.463,3.26-3.261
		c0-0.154-0.015-0.297-0.033-0.443h8.357c0.785,0,1.425-0.636,1.425-1.426L2948.133,2944.043z M2936.946,2926.208
		c0-1,0.812-1.812,1.814-1.812c1,0,1.812,0.812,1.812,1.812c0,0.181-0.034,0.35-0.083,0.516c-0.559-0.105-1.134-0.162-1.723-0.162
		c-0.593,0-1.175,0.061-1.737,0.166C2936.981,2926.562,2936.946,2926.389,2936.946,2926.208z"/>
</g>
<circle fill="#E30000" cx="2946.993" cy="2928.125" r="7.5"/>
<polygon fill="#DDDDDD" points="3013.848,3013.023 3011.885,3015.467 3018.77,3022.687 3025.654,3015.398 3023.691,3012.955 
	3018.77,3018.2 "/>
<polygon fill="#DDDDDD" points="3103.69,3102.618 3105.653,3100.173 3098.769,3092.954 3091.884,3100.243 3093.847,3102.686 
	3098.769,3097.441 "/>
</svg>
